<svg xmlns="http://www.w3.org/2000/svg" viewBox="0 0 82.48 79.66"><title>Logo</title><g id="Layer_2" data-name="Layer 2"><g id="ARTWORK"><path d="M44.93,0s6.57,13.34,5.36,18.9c0,0,17.14,5.55,19.05,14.69C69.34,33.59,78.72,21.24,44.93,0Z"/><path d="M38.32,20c1.67,3.51,2.43,7.28,3.42,11.22L32,27.52c.91-5.93-4.86-15-4.86-15Z"/><path d="M21,29.21a70.53,70.53,0,0,1,3,9.51l-8.81-2.19c.9-5.93-4.69-13.1-4.69-13.1Z"/><path d="M40.18,15s39.3,27.6,41.89,38.31c2,8.05-3.73,15.5-3.73,15.5s-3-21-78.34,10.9c7.63-8.51,11.78-19.37,10.68-31.09A39.56,39.56,0,0,0,7,35.07l17.65,9.35c0,.28,0,.56.07.84a61.17,61.17,0,0,1-1.47,20.58,48.39,48.39,0,0,0,4.49-25.25,48.53,48.53,0,0,0-4-15.33L42.6,37.82c.08.63.12,1.26.18,1.89a60.93,60.93,0,0,1-2,22.64,48.46,48.46,0,0,0,5.68-27.63A48.3,48.3,0,0,0,40.18,15Z"/></g></g></svg>