# This file uses centimeters as units for non-parametric coordinates.

mtllib rays.mtl
v 0.274365 -1.757734 -1.899656
v -0.145468 -1.845249 -1.899351
v -0.564278 -1.897032 -1.822954
v -0.965968 -1.911091 -1.673400
v -1.335103 -1.886886 -1.456438
v -1.657497 -1.825349 -1.180404
v -1.920761 -1.728843 -0.855907
v -2.114776 -1.601078 -0.495417
v -2.232088 -1.446963 -0.112787
v -2.268188 -1.272421 0.277279
v -2.221690 -1.084159 0.659790
v -2.094378 -0.889412 1.020046
v -1.891148 -0.695664 1.344205
v -1.619807 -0.510362 1.619807
v -1.290784 -0.340625 1.836262
v -0.916723 -0.192977 1.985252
v -0.511999 -0.073091 2.061050
v -0.092165 0.014424 2.060745
v 0.326644 0.066206 1.984348
v 0.728335 0.080265 1.834794
v 1.097470 0.056061 1.617831
v 1.419864 -0.005477 1.341798
v 1.683128 -0.101982 1.017300
v 1.877144 -0.229748 0.656810
v 1.994456 -0.383863 0.274179
v 2.030556 -0.558406 -0.115886
v 1.984057 -0.746668 -0.498398
v 1.856745 -0.941415 -0.858655
v 1.653514 -1.135162 -1.182813
v 1.382173 -1.320465 -1.458415
v 1.053150 -1.490202 -1.674870
v 0.679089 -1.637850 -1.823860
v -0.022425 -0.341279 -2.549418
v -0.440237 -0.428372 -2.549114
v -0.857030 -0.479905 -2.473085
v -1.256786 -0.493897 -2.324252
v -1.624144 -0.469809 -2.108334
v -1.944985 -0.408568 -1.833629
v -2.206981 -0.312527 -1.510695
v -2.400062 -0.185377 -1.151940
v -2.516809 -0.032004 -0.771153
v -2.552736 0.141698 -0.382966
v -2.506461 0.329053 -0.002297
v -2.379763 0.522862 0.356226
v -2.177510 0.715677 0.678823
v -1.907476 0.900087 0.953098
v -1.580038 1.069007 1.168511
v -1.207778 1.215944 1.316783
v -0.805003 1.335252 1.392217
v -0.387191 1.422346 1.391913
v 0.029602 1.473879 1.315883
v 0.429359 1.487870 1.167050
v 0.796716 1.463782 0.951132
v 1.117558 1.402541 0.676427
v 1.379554 1.306500 0.353492
v 1.572635 1.179350 -0.005262
v 1.689383 1.025977 -0.386050
v 1.725309 0.852275 -0.774237
v 1.679034 0.664919 -1.154907
v 1.552335 0.471110 -1.513429
v 1.350083 0.278295 -1.836026
v 1.080048 0.093885 -2.110302
v 0.752610 -0.075035 -2.325714
v 0.380350 -0.221972 -2.473987
vt -2.443733 0.013559
vt -2.259750 0.013559
vt -2.075767 0.013559
vt -1.891783 0.013559
vt -1.707800 0.013559
vt -1.523817 0.013559
vt -1.339833 0.013559
vt -1.155850 0.013559
vt -0.971867 0.013559
vt -0.787883 0.013559
vt -0.603900 0.013559
vt -0.419917 0.013559
vt -0.235933 0.013559
vt -0.051950 0.013559
vt 0.132033 0.013559
vt 0.316017 0.013559
vt 0.500000 0.013559
vt 0.683983 0.013559
vt 0.867967 0.013559
vt 1.051950 0.013559
vt 1.235933 0.013559
vt 1.419917 0.013559
vt 1.603900 0.013559
vt 1.787883 0.013559
vt 1.971867 0.013559
vt 2.155850 0.013559
vt 2.339833 0.013559
vt 2.523817 0.013559
vt 2.707800 0.013559
vt 2.891783 0.013559
vt 3.075767 0.013559
vt 3.259750 0.013559
vt 3.443733 0.013559
vt -2.443733 0.985735
vt -2.259750 0.985735
vt -2.075767 0.985735
vt -1.891783 0.985735
vt -1.707800 0.985735
vt -1.523817 0.985735
vt -1.339833 0.985735
vt -1.155850 0.985735
vt -0.971867 0.985735
vt -0.787883 0.985735
vt -0.603900 0.985735
vt -0.419917 0.985735
vt -0.235933 0.985735
vt -0.051950 0.985735
vt 0.132033 0.985735
vt 0.316017 0.985735
vt 0.500000 0.985735
vt 0.683983 0.985735
vt 0.867967 0.985735
vt 1.051950 0.985735
vt 1.235933 0.985735
vt 1.419917 0.985735
vt 1.603900 0.985735
vt 1.787883 0.985735
vt 1.971867 0.985735
vt 2.155850 0.985735
vt 2.339833 0.985735
vt 2.523817 0.985735
vt 2.707800 0.985735
vt 2.891783 0.985735
vt 3.075767 0.985735
vt 3.259750 0.985735
vt 3.443733 0.985735
vn -0.178485 0.379111 0.907974
vn -0.178485 0.379111 0.907974
vn 0.013416 0.419114 0.907835
vn 0.013416 0.419114 0.907835
vn 0.204853 0.442783 0.872914
vn 0.204853 0.442783 0.872914
vn 0.388465 0.449209 0.804553
vn 0.388465 0.449209 0.804553
vn 0.557196 0.438146 0.705380
vn 0.557196 0.438146 0.705380
vn 0.704561 0.410017 0.579206
vn 0.704561 0.410017 0.579206
vn 0.824898 0.365905 0.430879
vn 0.824898 0.365905 0.430879
vn 0.913582 0.307503 0.266099
vn 0.913582 0.307503 0.266100
vn 0.967205 0.237058 0.091201
vn 0.967205 0.237058 0.091201
vn 0.983707 0.157275 -0.087097
vn 0.983707 0.157275 -0.087097
vn 0.962452 0.071221 -0.261942
vn 0.962452 0.071221 -0.261942
vn 0.904258 -0.017797 -0.426614
vn 0.904258 -0.017797 -0.426615
vn 0.811362 -0.106359 -0.574786
vn 0.811362 -0.106359 -0.574786
vn 0.687333 -0.191060 -0.700763
vn 0.687333 -0.191060 -0.700763
vn 0.536938 -0.268646 -0.799704
vn 0.536938 -0.268646 -0.799704
vn 0.365956 -0.336136 -0.867807
vn 0.365956 -0.336136 -0.867807
vn 0.180957 -0.390935 -0.902455
vn 0.180957 -0.390935 -0.902455
vn -0.010948 -0.430938 -0.902315
vn -0.010948 -0.430938 -0.902315
vn -0.202384 -0.454608 -0.867394
vn -0.202384 -0.454608 -0.867394
vn -0.385996 -0.461034 -0.799033
vn -0.385996 -0.461034 -0.799033
vn -0.554727 -0.449970 -0.699860
vn -0.554727 -0.449970 -0.699860
vn -0.702093 -0.421842 -0.573686
vn -0.702093 -0.421842 -0.573686
vn -0.822429 -0.377729 -0.425359
vn -0.822429 -0.377729 -0.425359
vn -0.911113 -0.319328 -0.260580
vn -0.911113 -0.319328 -0.260580
vn -0.964736 -0.248882 -0.085681
vn -0.964736 -0.248882 -0.085681
vn -0.981238 -0.169099 0.092617
vn -0.981238 -0.169099 0.092617
vn -0.959983 -0.083045 0.267462
vn -0.959983 -0.083045 0.267462
vn -0.901789 0.005973 0.432134
vn -0.901789 0.005973 0.432134
vn -0.808893 0.094534 0.580306
vn -0.808893 0.094534 0.580306
vn -0.684864 0.179236 0.706283
vn -0.684864 0.179236 0.706283
vn -0.534469 0.256822 0.805224
vn -0.534468 0.256822 0.805224
vn -0.363484 0.324312 0.873328
vn -0.363484 0.324312 0.873328
usemtl phongE8SG
f 1/1/1 33/34/2 34/35/3 2/2/4
f 2/2/4 34/35/3 35/36/5 3/3/6
f 3/3/6 35/36/5 36/37/7 4/4/8
f 4/4/8 36/37/7 37/38/9 5/5/10
f 5/5/10 37/38/9 38/39/11 6/6/12
f 6/6/12 38/39/11 39/40/13 7/7/14
f 7/7/14 39/40/13 40/41/15 8/8/16
f 8/8/16 40/41/15 41/42/17 9/9/18
f 9/9/18 41/42/17 42/43/19 10/10/20
f 10/10/20 42/43/19 43/44/21 11/11/22
f 11/11/22 43/44/21 44/45/23 12/12/24
f 12/12/24 44/45/23 45/46/25 13/13/26
f 13/13/26 45/46/25 46/47/27 14/14/28
f 14/14/28 46/47/27 47/48/29 15/15/30
f 15/15/30 47/48/29 48/49/31 16/16/32
f 16/16/32 48/49/31 49/50/33 17/17/34
f 17/17/34 49/50/33 50/51/35 18/18/36
f 18/18/36 50/51/35 51/52/37 19/19/38
f 19/19/38 51/52/37 52/53/39 20/20/40
f 20/20/40 52/53/39 53/54/41 21/21/42
f 21/21/42 53/54/41 54/55/43 22/22/44
f 22/22/44 54/55/43 55/56/45 23/23/46
f 23/23/46 55/56/45 56/57/47 24/24/48
f 24/24/48 56/57/47 57/58/49 25/25/50
f 25/25/50 57/58/49 58/59/51 26/26/52
f 26/26/52 58/59/51 59/60/53 27/27/54
f 27/27/54 59/60/53 60/61/55 28/28/56
f 28/28/56 60/61/55 61/62/57 29/29/58
f 29/29/58 61/62/57 62/63/59 30/30/60
f 30/30/60 62/63/59 63/64/61 31/31/62
f 31/31/62 63/64/61 64/65/63 32/32/64
f 32/32/64 64/65/63 33/66/2 1/33/1
