# This file uses centimeters as units for non-parametric coordinates.

mtllib flow.mtl
g default
v -2.694658 -2.111874 0.822757
v -1.730964 -3.361060 -0.292321
v -1.675113 -1.182809 0.812166
v -0.617735 -2.227436 -0.422750
v -0.653512 -0.173516 0.893772
v 0.441159 -1.116514 -0.389559
v 0.349810 0.880350 1.009352
v 1.464023 -0.002643 -0.299584
v 1.321043 1.978071 1.115286
v 2.445385 1.128420 -0.207000
v 2.224645 3.165100 1.122306
v 3.345796 2.304801 -0.195770
v 3.048127 4.156277 -0.596649
v 2.500544 2.987735 0.102861
v 2.077373 2.188270 -1.154427
v 1.202088 3.583879 -0.150804
v 0.564871 1.302702 -0.441859
v 0.197942 3.160001 -0.065770
v -1.128675 1.185317 0.101705
v -1.014663 3.101295 -0.102629
v -1.996978 1.131286 -0.464644
v -2.946617 2.400083 0.632845
v -2.637230 0.496964 -0.766214
v -3.871187 0.585875 0.714586
v -2.805676 -0.230458 -1.083868
v -3.735199 -1.429726 0.076027
v -2.455003 -0.156340 -1.498999
v -2.337092 -2.083589 -1.573173
v -1.081826 -0.016321 -1.907532
v -0.916126 -1.937076 -2.039404
v -0.052997 -0.026918 -1.619091
v 0.830881 -1.370751 -2.445615
v 0.873064 0.939638 -1.721633
v 1.656950 -0.037566 -2.578150
v 1.897692 2.135542 -1.276095
v 2.336176 0.680541 -1.585022
v 4.211253 1.778611 -0.219265
v 2.674912 0.730634 -0.691339
v 4.630986 -0.462012 0.254525
v 2.962502 0.181614 -0.408046
v 3.221655 -1.886219 -0.529576
v 2.589650 -0.137280 -0.699156
v 1.554121 -1.905296 -0.516337
v 1.777237 -0.015518 -0.850957
v 0.311263 -1.592299 -0.255138
v 0.659205 0.246177 -0.738069
v -1.128515 -1.206405 0.054109
v -0.730010 0.604964 -0.488677
v -2.515670 -0.796925 0.387040
v -2.119407 1.015727 -0.153095
v -3.738063 -0.454058 0.826560
v -3.532458 1.440826 0.512819
v -1.676170 -2.225558 0.204617
v -2.212811 -2.736467 0.265218
v -1.164410 -2.788364 -0.391065
v -1.146424 -1.705122 0.194708
v -2.187935 -1.662757 0.800299
v -0.623162 -1.178000 0.214276
v -0.083505 -1.671336 -0.417388
v -0.106177 -0.645015 0.252107
v -1.162819 -0.684665 0.845941
v 0.404537 -0.105711 0.301026
v 0.957474 -0.560339 -0.347966
v 0.906917 0.438853 0.354884
v -0.148400 0.348918 0.950019
v 1.401467 0.991962 0.408299
v 1.961633 0.560439 -0.250199
v 1.883214 1.553246 0.454143
v 0.841300 1.423485 1.066797
v 2.351136 2.132652 0.481461
v 2.913976 1.710097 -0.180568
v 2.785221 2.734951 0.463268
v 1.788295 2.555208 1.143489
v 3.076303 3.361127 0.274271
v 3.608008 2.850261 -0.347217
v 2.774335 3.572008 -0.246892
v 2.544597 3.871993 0.895758
v 2.216571 3.334617 -0.636528
v 1.667737 3.790245 0.007496
v 1.639731 2.886075 -0.652615
v 2.765405 2.878990 -1.280552
v 1.043981 2.487082 -0.464412
v 0.724061 3.325045 -0.109088
v 0.381406 2.231352 -0.253815
v 1.363900 1.649120 -0.819735
v -0.334932 2.126822 -0.093552
v -0.378601 3.091269 -0.074875
v -1.071669 2.143306 -0.000462
v -0.291260 1.162376 -0.112229
v -1.807443 2.085918 0.056179
v -2.023619 2.999319 0.284098
v -2.471797 1.765685 0.084101
v -1.591264 1.172519 -0.171741
v -2.962902 1.216025 0.061206
v -3.552297 1.524914 0.759155
v -3.254209 0.541420 -0.025814
v -2.373510 0.907133 -0.636744
v -3.361212 -0.170817 -0.195278
v -3.958384 -0.385506 0.530395
v -3.270438 -0.830092 -0.503920
v -2.764039 0.043868 -0.920952
v -2.931571 -1.141573 -1.033632
v -2.972101 -2.094624 -0.951451
v -2.396047 -1.119965 -1.536086
v -2.891040 -0.188522 -1.115812
v -1.723758 -1.052384 -1.833803
v -1.639201 -2.012496 -1.901803
v -0.998976 -0.976698 -1.973468
v -1.808319 -0.092272 -1.765802
v -0.339351 -0.898227 -1.964949
v -0.212903 -1.889204 -2.071388
v 0.405973 -0.690382 -2.147755
v -0.545215 0.050476 -1.926341
v 0.914276 -0.158353 -2.249422
v 1.432997 -0.705117 -2.854037
v 1.147144 0.401635 -2.245577
v 0.395552 0.388408 -1.644807
v 1.744796 0.942715 -1.872127
v 2.180215 0.349252 -2.290025
v 2.282594 1.364397 -1.711910
v 1.161098 1.524047 -1.719048
v 2.979860 1.418986 -1.430472
v 2.550052 0.764166 -1.122726
v 3.349909 1.289557 -0.348595
v 3.588287 2.416898 -0.846769
v 3.715255 0.679349 -0.139486
v 2.845219 0.499343 -0.580756
v 3.852940 -0.179118 0.097453
v 4.569040 0.735988 -0.024252
v 3.505255 -0.694443 -0.291999
v 2.820436 0.028201 -0.533793
v 2.937437 -0.927046 -0.474202
v 3.947285 -1.542854 -0.291661
v 2.390172 -1.044172 -0.834220
v 2.354926 -0.084027 -0.925427
v 1.665679 -0.960407 -0.683647
v 2.342342 -2.004317 -0.743013
v 1.051755 -0.809706 -0.562370
v 1.201254 0.120891 -0.774805
v 0.485234 -0.673061 -0.496603
v 0.902257 -1.740302 -0.349936
v -0.225168 -0.493862 -0.360182
v -0.035292 0.417069 -0.620483
v -0.929263 -0.300721 -0.217284
v -0.415044 -1.404794 -0.099881
v -1.626673 -0.098257 -0.061611
v -1.424138 0.805528 -0.336884
v -2.317538 0.109401 0.116972
v -1.829207 -1.002042 0.213661
v -2.996604 0.314928 0.339133
v -2.817693 1.231678 0.091813
v -3.635260 0.493384 0.669689
v -3.175516 -0.601821 0.586452
vt 0.000000 0.004667
vt 1.000000 0.004667
vt 0.000000 0.044419
vt 1.000000 0.044419
vt 0.000000 0.084170
vt 1.000000 0.084170
vt 0.000000 0.123921
vt 1.000000 0.123921
vt 0.000000 0.163672
vt 1.000000 0.163672
vt 0.000000 0.203424
vt 1.000000 0.203424
vt 0.000000 0.243175
vt 1.000000 0.243175
vt 0.000000 0.282926
vt 1.000000 0.282926
vt 0.000000 0.322677
vt 1.000000 0.322677
vt 0.000000 0.362428
vt 1.000000 0.362428
vt 0.000000 0.402180
vt 1.000000 0.402180
vt 0.000000 0.441931
vt 1.000000 0.441931
vt 0.000000 0.481682
vt 1.000000 0.481682
vt 0.000000 0.521433
vt 1.000000 0.521433
vt 0.000000 0.561184
vt 1.000000 0.561184
vt 0.000000 0.600936
vt 1.000000 0.600936
vt 0.000000 0.640687
vt 1.000000 0.640687
vt 0.000000 0.680438
vt 1.000000 0.680438
vt 0.000000 0.720189
vt 1.000000 0.720189
vt 0.000000 0.759941
vt 1.000000 0.759941
vt 0.000000 0.799692
vt 1.000000 0.799692
vt 0.000000 0.839443
vt 1.000000 0.839443
vt 0.000000 0.879194
vt 1.000000 0.879194
vt 0.000000 0.918945
vt 1.000000 0.918945
vt 0.000000 0.958697
vt 1.000000 0.958697
vt 0.000000 0.998448
vt 1.000000 0.998448
vt 0.500000 0.024543
vt 0.500000 0.004667
vt 1.000000 0.024543
vt 0.500000 0.044419
vt 0.000000 0.024543
vt 0.500000 0.064294
vt 1.000000 0.064294
vt 0.500000 0.084170
vt 0.000000 0.064294
vt 0.500000 0.104045
vt 1.000000 0.104045
vt 0.500000 0.123921
vt 0.000000 0.104045
vt 0.500000 0.143797
vt 1.000000 0.143797
vt 0.500000 0.163672
vt 0.000000 0.143797
vt 0.500000 0.183548
vt 1.000000 0.183548
vt 0.500000 0.203424
vt 0.000000 0.183548
vt 0.500000 0.223299
vt 1.000000 0.223299
vt 0.500000 0.243175
vt 0.000000 0.223299
vt 0.500000 0.263050
vt 1.000000 0.263050
vt 0.500000 0.282926
vt 0.000000 0.263050
vt 0.500000 0.302801
vt 1.000000 0.302801
vt 0.500000 0.322677
vt 0.000000 0.302801
vt 0.500000 0.342553
vt 1.000000 0.342553
vt 0.500000 0.362428
vt 0.000000 0.342553
vt 0.500000 0.382304
vt 1.000000 0.382304
vt 0.500000 0.402180
vt 0.000000 0.382304
vt 0.500000 0.422055
vt 1.000000 0.422055
vt 0.500000 0.441931
vt 0.000000 0.422055
vt 0.500000 0.461807
vt 1.000000 0.461806
vt 0.500000 0.481682
vt 0.000000 0.461806
vt 0.500000 0.501558
vt 1.000000 0.501558
vt 0.500000 0.521433
vt 0.000000 0.501558
vt 0.500000 0.541309
vt 1.000000 0.541309
vt 0.500000 0.561184
vt 0.000000 0.541309
vt 0.500000 0.581060
vt 1.000000 0.581060
vt 0.500000 0.600936
vt 0.000000 0.581060
vt 0.500000 0.620811
vt 1.000000 0.620811
vt 0.500000 0.640687
vt 0.000000 0.620811
vt 0.500000 0.660563
vt 1.000000 0.660563
vt 0.500000 0.680438
vt 0.000000 0.660563
vt 0.500000 0.700314
vt 1.000000 0.700314
vt 0.500000 0.720189
vt 0.000000 0.700314
vt 0.500000 0.740065
vt 1.000000 0.740065
vt 0.500000 0.759941
vt 0.000000 0.740065
vt 0.500000 0.779816
vt 1.000000 0.779816
vt 0.500000 0.799692
vt 0.000000 0.779816
vt 0.500000 0.819567
vt 1.000000 0.819567
vt 0.500000 0.839443
vt 0.000000 0.819567
vt 0.500000 0.859318
vt 1.000000 0.859318
vt 0.500000 0.879194
vt 0.000000 0.859318
vt 0.500000 0.899070
vt 1.000000 0.899070
vt 0.500000 0.918945
vt 0.000000 0.899070
vt 0.500000 0.938821
vt 1.000000 0.938821
vt 0.500000 0.958697
vt 0.000000 0.938821
vt 0.500000 0.978572
vt 1.000000 0.978572
vt 0.500000 0.998448
vt 0.000000 0.978572
vn 0.437012 -0.431572 0.789155
vn 0.439747 -0.408730 0.799726
vn 0.461125 -0.388797 0.797622
vn 0.454591 -0.414870 0.788182
vn 0.437680 -0.486704 0.756013
vn 0.434729 -0.466693 0.770200
vn 0.446376 -0.455247 0.770389
vn 0.445990 -0.478311 0.756513
vn 0.452024 -0.501661 0.737571
vn 0.443591 -0.497617 0.745389
vn 0.449751 -0.491234 0.745931
vn 0.456657 -0.496731 0.738053
vn 0.478924 -0.489242 0.728886
vn 0.463389 -0.499279 0.732114
vn 0.466825 -0.495512 0.732490
vn 0.481283 -0.486559 0.729128
vn 0.541723 -0.417964 0.729276
vn 0.501978 -0.466987 0.727971
vn 0.503151 -0.465581 0.728061
vn 0.541160 -0.418700 0.729271
vn 0.835221 -0.018521 0.549603
vn 0.648307 -0.250483 0.718997
vn 0.643668 -0.258349 0.720380
vn 0.917481 0.028592 0.396751
vn 0.517251 -0.508275 0.688556
vn 0.872546 -0.337614 0.353101
vn 0.875611 -0.479935 0.054485
vn 0.381844 -0.714938 0.585712
vn 0.460058 -0.189317 0.867471
vn 0.471106 -0.319912 0.822020
vn 0.409273 -0.370975 0.833591
vn 0.407526 -0.217369 0.886946
vn 0.250508 -0.013308 0.968023
vn 0.365804 -0.110908 0.924060
vn 0.300434 -0.127958 0.945181
vn 0.182083 -0.017843 0.983121
vn -0.120958 -0.274058 0.954076
vn 0.032642 -0.012479 0.999389
vn 0.114410 -0.007829 0.993403
vn 0.172639 -0.206053 0.963192
vn 0.501905 -0.517056 0.693357
vn 0.159613 -0.540132 0.826306
vn 0.365841 -0.402541 0.839119
vn 0.579930 -0.408491 0.704852
vn 0.782520 -0.272926 0.559620
vn 0.691675 -0.381954 0.612941
vn 0.715320 -0.310076 0.626234
vn 0.786133 -0.200172 0.584744
vn 0.734315 -0.005420 0.678787
vn 0.845898 -0.180852 0.501747
vn 0.818838 -0.086923 0.567405
vn 0.759119 -0.002230 0.650948
vn 0.295737 -0.036361 0.954577
vn 0.534303 0.000455 0.845293
vn 0.552272 0.001995 0.833662
vn 0.302025 -0.035745 0.952630
vn -0.015693 -0.181819 0.983207
vn 0.113850 -0.052012 0.992136
vn 0.113416 -0.060518 0.991703
vn 0.120421 -0.144732 0.982116
vn 0.528743 -0.352212 0.772255
vn 0.228182 -0.375054 0.898481
vn 0.383540 -0.221486 0.896572
vn 0.512305 -0.295650 0.806309
vn 0.013736 -0.434971 0.900340
vn 0.342234 -0.395325 0.852405
vn 0.322314 -0.443051 0.836552
vn -0.091895 -0.469872 0.877938
vn -0.599508 0.111360 0.792584
vn -0.148208 -0.461590 0.874625
vn -0.263613 -0.354304 0.897205
vn -0.524397 -0.019181 0.851258
vn -0.155114 0.196848 0.968086
vn -0.496981 0.312154 0.809673
vn -0.570886 0.341256 0.746748
vn -0.264857 0.174497 0.948368
vn -0.310154 -0.200516 0.929300
vn -0.271278 -0.045985 0.961402
vn -0.320627 -0.013047 0.947116
vn -0.375853 -0.194647 0.906006
vn -0.047838 0.045771 0.997806
vn -0.313756 -0.078093 0.946287
vn -0.375680 -0.048855 0.925461
vn -0.101782 0.057624 0.993136
vn 0.222789 0.179047 0.958283
vn 0.254415 0.131138 0.958163
vn 0.226256 0.137934 0.964252
vn 0.197490 0.184451 0.962796
vn 0.251821 0.215323 0.943516
vn 0.218059 0.207658 0.953587
vn 0.203492 0.211134 0.956041
vn 0.243961 0.217390 0.945106
vn 0.288383 0.217405 0.932508
vn 0.266587 0.220807 0.938177
vn 0.262708 0.221899 0.939013
vn 0.288702 0.217311 0.932431
vn 0.398926 0.157315 0.903388
vn 0.323686 0.201385 0.924485
vn 0.330143 0.199466 0.922615
vn 0.420457 0.151278 0.894612
vn 0.479429 -0.371157 0.795230
vn 0.470104 -0.399726 0.786906
vn 0.457132 -0.444465 0.770377
vn 0.453845 -0.470258 0.756890
vn 0.455657 -0.485043 0.746398
vn 0.461143 -0.491915 0.738490
vn 0.470177 -0.491812 0.732840
vn 0.483598 -0.483911 0.729358
vn 0.504312 -0.464187 0.728149
vn 0.540588 -0.419446 0.729266
vn 0.638108 -0.267671 0.721921
vn 0.831799 -0.080883 0.549153
vn -0.140387 -0.580172 -0.802305
vn 0.112549 -0.818509 0.563361
vn 0.309779 -0.442228 0.841708
vn 0.325367 -0.258059 0.909693
vn 0.201928 -0.151797 0.967565
vn 0.087547 -0.023437 0.995885
vn 0.155073 -0.002568 0.987900
vn 0.313605 -0.162578 0.935532
vn 0.464256 -0.326253 0.823423
vn 0.621326 -0.342836 0.704569
vn 0.727756 -0.265328 0.632433
vn 0.785519 -0.164534 0.596564
vn 0.808765 -0.066113 0.584404
vn 0.754605 0.004448 0.656165
vn 0.565270 0.002997 0.824901
vn 0.307916 -0.035168 0.950763
vn 0.111542 -0.068236 0.991414
vn 0.194703 -0.102335 0.975509
vn 0.445557 -0.142142 0.883897
vn 0.517575 -0.228643 0.824523
vn 0.230224 -0.476547 0.848469
vn -0.133347 -0.550655 0.824013
vn -0.622740 -0.008010 0.782388
vn -0.693059 0.563443 0.449667
vn -0.687526 0.473568 0.550493
vn -0.460108 0.108923 0.881156
vn -0.499103 0.022932 0.866239
vn -0.473810 -0.106267 0.874192
vn -0.519327 0.010872 0.854506
vn -0.093711 0.093691 0.991181
vn 0.191798 0.146029 0.970510
vn 0.170556 0.190110 0.966834
vn 0.188612 0.214641 0.958308
vn 0.235813 0.219512 0.946682
vn 0.258753 0.223007 0.939848
vn 0.289011 0.217220 0.932356
vn 0.336339 0.197612 0.920775
vn 0.438519 0.146149 0.886759
vn 0.506257 0.108976 0.855470
vn 0.483063 0.115193 0.867975
vn 0.452913 0.123013 0.883027
s 1
g pPlane2
usemtl phongE1SG
f 57/57/1 1/1/2 54/54/3 53/53/4
f 61/61/5 3/3/6 56/56/7 58/58/8
f 65/65/9 5/5/10 60/60/11 62/62/12
f 69/69/13 7/7/14 64/64/15 66/66/16
f 73/73/17 9/9/18 68/68/19 70/70/20
f 77/77/21 11/11/22 72/72/23 74/74/24
f 81/81/25 13/13/26 76/76/27 78/78/28
f 85/85/29 15/15/30 80/80/31 82/82/32
f 89/89/33 17/17/34 84/84/35 86/86/36
f 93/93/37 19/19/38 88/88/39 90/90/40
f 97/97/41 21/21/42 92/92/43 94/94/44
f 101/101/45 23/23/46 96/96/47 98/98/48
f 105/105/49 25/25/50 100/100/51 102/102/52
f 109/109/53 27/27/54 104/104/55 106/106/56
f 113/113/57 29/29/58 108/108/59 110/110/60
f 117/117/61 31/31/62 112/112/63 114/114/64
f 121/121/65 33/33/66 116/116/67 118/118/68
f 125/125/69 35/35/70 120/120/71 122/122/72
f 129/129/73 37/37/74 124/124/75 126/126/76
f 133/133/77 39/39/78 128/128/79 130/130/80
f 137/137/81 41/41/82 132/132/83 134/134/84
f 141/141/85 43/43/86 136/136/87 138/138/88
f 145/145/89 45/45/90 140/140/91 142/142/92
f 149/149/93 47/47/94 144/144/95 146/146/96
f 153/153/97 49/49/98 148/148/99 150/150/100
f 54/54/3 2/2/101 55/55/102 53/53/4
f 55/55/102 4/4/103 56/56/7 53/53/4
f 56/56/7 3/3/6 57/57/1 53/53/4
f 56/56/7 4/4/103 59/59/104 58/58/8
f 59/59/104 6/6/105 60/60/11 58/58/8
f 60/60/11 5/5/10 61/61/5 58/58/8
f 60/60/11 6/6/105 63/63/106 62/62/12
f 63/63/106 8/8/107 64/64/15 62/62/12
f 64/64/15 7/7/14 65/65/9 62/62/12
f 64/64/15 8/8/107 67/67/108 66/66/16
f 67/67/108 10/10/109 68/68/19 66/66/16
f 68/68/19 9/9/18 69/69/13 66/66/16
f 68/68/19 10/10/109 71/71/110 70/70/20
f 71/71/110 12/12/111 72/72/23 70/70/20
f 72/72/23 11/11/22 73/73/17 70/70/20
f 72/72/23 12/12/111 75/75/112 74/74/24
f 75/75/112 14/14/113 76/76/27 74/74/24
f 76/76/27 13/13/26 77/77/21 74/74/24
f 76/76/27 14/14/113 79/79/114 78/78/28
f 79/79/114 16/16/115 80/80/31 78/78/28
f 80/80/31 15/15/30 81/81/25 78/78/28
f 80/80/31 16/16/115 83/83/116 82/82/32
f 83/83/116 18/18/117 84/84/35 82/82/32
f 84/84/35 17/17/34 85/85/29 82/82/32
f 84/84/35 18/18/117 87/87/118 86/86/36
f 87/87/118 20/20/119 88/88/39 86/86/36
f 88/88/39 19/19/38 89/89/33 86/86/36
f 88/88/39 20/20/119 91/91/120 90/90/40
f 91/91/120 22/22/121 92/92/43 90/90/40
f 92/92/43 21/21/42 93/93/37 90/90/40
f 92/92/43 22/22/121 95/95/122 94/94/44
f 95/95/122 24/24/123 96/96/47 94/94/44
f 96/96/47 23/23/46 97/97/41 94/94/44
f 96/96/47 24/24/123 99/99/124 98/98/48
f 99/99/124 26/26/125 100/100/51 98/98/48
f 100/100/51 25/25/50 101/101/45 98/98/48
f 100/100/51 26/26/125 103/103/126 102/102/52
f 103/103/126 28/28/127 104/104/55 102/102/52
f 104/104/55 27/27/54 105/105/49 102/102/52
f 104/104/55 28/28/127 107/107/128 106/106/56
f 107/107/128 30/30/129 108/108/59 106/106/56
f 108/108/59 29/29/58 109/109/53 106/106/56
f 108/108/59 30/30/129 111/111/130 110/110/60
f 111/111/130 32/32/131 112/112/63 110/110/60
f 112/112/63 31/31/62 113/113/57 110/110/60
f 112/112/63 32/32/131 115/115/132 114/114/64
f 115/115/132 34/34/133 116/116/67 114/114/64
f 116/116/67 33/33/66 117/117/61 114/114/64
f 116/116/67 34/34/133 119/119/134 118/118/68
f 119/119/134 36/36/135 120/120/71 118/118/68
f 120/120/71 35/35/70 121/121/65 118/118/68
f 120/120/71 36/36/135 123/123/136 122/122/72
f 123/123/136 38/38/137 124/124/75 122/122/72
f 124/124/75 37/37/74 125/125/69 122/122/72
f 124/124/75 38/38/137 127/127/138 126/126/76
f 127/127/138 40/40/139 128/128/79 126/126/76
f 128/128/79 39/39/78 129/129/73 126/126/76
f 128/128/79 40/40/139 131/131/140 130/130/80
f 131/131/140 42/42/141 132/132/83 130/130/80
f 132/132/83 41/41/82 133/133/77 130/130/80
f 132/132/83 42/42/141 135/135/142 134/134/84
f 135/135/142 44/44/143 136/136/87 134/134/84
f 136/136/87 43/43/86 137/137/81 134/134/84
f 136/136/87 44/44/143 139/139/144 138/138/88
f 139/139/144 46/46/145 140/140/91 138/138/88
f 140/140/91 45/45/90 141/141/85 138/138/88
f 140/140/91 46/46/145 143/143/146 142/142/92
f 143/143/146 48/48/147 144/144/95 142/142/92
f 144/144/95 47/47/94 145/145/89 142/142/92
f 144/144/95 48/48/147 147/147/148 146/146/96
f 147/147/148 50/50/149 148/148/99 146/146/96
f 148/148/99 49/49/98 149/149/93 146/146/96
f 148/148/99 50/50/149 151/151/150 150/150/100
f 151/151/150 52/52/151 152/152/152 150/150/100
f 152/152/152 51/51/153 153/153/97 150/150/100
